<svg xmlns="http://www.w3.org/2000/svg" width="54" height="54" viewBox="0 0 54 54">
  <g fill="none" fill-rule="evenodd" transform="translate(2 2)">
    <path fill="#FFF" fill-rule="nonzero" d="M36.7799359,11.0029762 C36.4086368,11.0306105 36.0444119,11.1205705 35.7020637,11.2692003 L35.6978145,11.2692003 C35.3677958,11.40591 33.8041021,12.0894584 31.4288173,13.1255739 L22.9078195,16.8527116 L10.7849438,22.1613645 L10.8571796,22.1325835 C10.8571796,22.1325835 10.4421776,22.2736103 10.0101788,22.5830059 C9.74154756,22.7604869 9.51121023,22.9915718 9.33314478,23.2622372 C9.12068639,23.5845843 8.95071967,24.0824953 9.0130408,24.5919188 C9.11785361,25.4582265 9.65891431,25.9791623 10.047005,26.2640941 C10.2828172,26.4393636 10.5398861,26.5830135 10.8118552,26.6914917 L10.8217699,26.6914917 L16.4561664,28.6629893 C16.7097001,29.5062721 18.1742466,34.5084075 18.5255111,35.661086 C18.7337203,36.3503906 18.936264,36.7806664 19.1883813,37.1087696 C19.3101908,37.2771384 19.4546625,37.4181652 19.6260456,37.5304111 C19.7150717,37.5841302 19.8101954,37.6266542 19.9093234,37.6570474 L19.8512515,37.6426569 C19.8696645,37.646974 19.882412,37.6613645 19.8965759,37.6656817 C19.9419004,37.6800722 19.9730609,37.6843893 20.0311329,37.6944627 C20.9234581,37.9750773 21.6415675,37.3994576 21.6415675,37.3994576 L21.6812264,37.3663594 L25.0097412,34.2191586 L30.5846493,38.6643819 L30.7121243,38.7205048 C31.8735635,39.250075 33.050583,38.9550699 33.6723779,38.434134 C34.0527306,38.1126523 34.3514773,37.7030152 34.5434573,37.2397231 L34.5845326,37.1317944 L38.8931887,14.1933485 C39.0149982,13.6263631 39.0475752,13.0967929 38.9116018,12.5816133 C38.7749156,12.0639099 38.4538948,11.6162137 38.0107782,11.3253233 C37.6421574,11.0923197 37.2120582,10.9798099 36.7785196,11.0029762 L36.7799359,11.0029762 Z M36.6623756,13.4623115 C36.6581265,13.537142 36.670874,13.5270687 36.6397134,13.6724127 L36.6397134,13.6868032 L32.3707162,36.3878059 C32.3523031,36.420904 32.3211425,36.4899784 32.2347428,36.5604918 C32.1455103,36.6353224 32.0732744,36.682811 31.6993477,36.5273937 L24.878017,31.0935435 L20.7563242,34.9962452 L21.6231544,29.2544385 C21.6231544,29.2544385 32.3069786,18.9047959 32.7673052,18.4615687 C33.2276317,18.0154635 33.0732452,17.9219253 33.0732452,17.9219253 C33.1058222,17.3779646 32.3792145,17.7636298 32.3792145,17.7636298 L18.328633,26.8080547 L18.3229674,26.7850299 L11.5880365,24.4278672 L11.5880365,24.42355 L11.5696234,24.4192329 C11.5738726,24.4192329 11.6064495,24.4048424 11.6064495,24.4048424 L11.6418593,24.3861347 L11.677269,24.3717442 L23.8043939,19.0645304 C26.8666275,17.7247755 29.9501069,16.3763863 32.3211425,15.3359537 C34.6921782,14.2998382 36.4456681,13.5414592 36.5448153,13.4997267 C36.6397134,13.4623115 36.5943889,13.4623115 36.6623756,13.4623115 Z"/>
    <circle cx="25" cy="25" r="25" stroke="#FFF" stroke-width="3"/>
  </g>
</svg>
