<svg xmlns="http://www.w3.org/2000/svg" width="49" height="50" viewBox="0 0 49 50">
  <g fill="none" transform="translate(-1)">
    <path d="M25.6097561,1.19047619 C22.3902439,1.19047619 12.595122,1.19047619 7.18292683,6.01785714 C3.9597561,9.15238095 2.43902439,13.6809524 2.43902439,20.2380952 L2.43902439,23.8095238 C2.43902439,30.3666667 3.95853659,34.8964286 7.22195122,38.0678571 C8.84634146,39.5130952 11.0609756,40.6666667 13.7670732,41.4666667 L14.6341463,41.722619 L14.6341463,48.0654762 C14.6341463,48.8095238 14.8536585,48.8095238 14.9292683,48.8095238 C15.0768293,48.8095238 15.3195122,48.7619048 15.7731707,48.3678571 C15.8829268,48.2607143 16.6878049,47.4095238 20.602439,43.1309524 L20.9987805,42.6988095 L21.5890244,42.7357143 C22.8987805,42.8154762 24.252439,42.8571429 25.6097561,42.8571429 C28.8292683,42.8571429 38.6243902,42.8571429 44.0365854,38.0297619 C47.2597561,34.8952381 48.7804878,30.3619048 48.7804878,23.8095238 L48.7804878,20.2380952 C48.7804878,13.6809524 47.2609756,9.15119048 43.997561,5.9797619 C38.6243902,1.19047619 28.8304878,1.19047619 25.6097561,1.19047619 Z"/>
    <path fill="#FFF" d="M37.1341463,29.5892857 C35.7804878,28.4738095 35.1560976,28.1392857 33.2841463,27.0416667 C32.5036585,26.5857143 31.3170732,26.1904762 30.6926829,26.1904762 C30.2682927,26.1904762 29.7585366,26.5071429 29.445122,26.8130952 C28.6439024,27.5952381 28.3817073,28.5714286 26.9817073,28.5714286 C25.6097561,28.5714286 23.2134146,27.2083333 21.4939024,25.4464286 C19.6890244,23.7678571 18.2926829,21.4285714 18.2926829,20.0892857 C18.2926829,18.722619 19.2743902,18.447619 20.0731707,17.6666667 C20.3890244,17.3595238 20.7317073,16.8619048 20.7317073,16.447619 C20.7317073,15.8392857 20.3268293,14.7 19.8597561,13.9369048 C18.7353659,12.1095238 18.3926829,11.5 17.25,10.1797619 C16.8634146,9.72738095 16.4256098,9.52380952 15.9634146,9.52380952 C15.1829268,9.52380952 14.1621951,9.9 13.4670732,10.402381 C12.4280488,11.1607143 11.3378049,12.1928571 11.047561,13.4809524 C11.0085366,13.6535714 10.9853659,13.8297619 10.9756098,14.0071429 C10.9182927,15.3464286 11.4609756,16.7035714 12.0426829,17.8571429 C13.4097561,20.5678571 15.2256098,23.1952381 17.197561,25.5392857 C17.8298968,26.2850653 18.5058185,26.9945795 19.2219512,27.6642857 C19.9079917,28.3633677 20.6348112,29.023196 21.3987805,29.6404762 C23.8,31.5666667 26.4914634,33.3380952 29.2682927,34.672619 C30.4353659,35.2357143 31.8121951,35.7511905 33.1707317,35.7142857 C33.3658537,35.7095238 33.5609756,35.6869048 33.7512195,35.6440476 C35.0707317,35.3607143 36.1280488,34.2964286 36.904878,33.2821429 C37.4195122,32.6035714 37.804878,31.6083333 37.804878,30.8452381 C37.804878,30.3940476 37.595122,29.9666667 37.1341463,29.5892857 L37.1341463,29.5892857 Z M37.804878,23.8095238 C37.1341463,23.8095238 36.5853659,23.2738095 36.5853659,22.6190476 L36.5853659,21.4285714 C36.5853659,15.5238095 31.6585366,10.7142857 25.6097561,10.7142857 C24.9390244,10.7142857 24.3902439,10.1785714 24.3902439,9.52380952 C24.3902439,8.86904762 24.9390244,8.33333333 25.6097561,8.33333333 C33.0073171,8.33333333 39.0243902,14.2071429 39.0243902,21.4285714 L39.0243902,22.6190476 C39.0243902,23.2738095 38.4756098,23.8095238 37.804878,23.8095238 Z M30.3170732,21.4285714 C29.7615858,21.4300869 29.2752385,21.0649564 29.1341463,20.5404762 C28.804553,19.2893879 27.8052202,18.3115695 26.5243902,17.9869048 C25.8720881,17.8225343 25.4797913,17.1730807 25.6481708,16.5363095 C25.8165503,15.8995384 26.4818442,15.5165819 27.1341463,15.6809524 C29.2692227,16.2238219 30.9365727,17.851473 31.4926829,19.9357143 C31.5880242,20.2919817 31.5092931,20.6712653 31.2793995,20.9631975 C31.0495058,21.2551297 30.6942742,21.4269171 30.3170732,21.4285714 L30.3170732,21.4285714 Z"/>
    <path fill="#FFF" d="M34.1463415,22.6190476 C33.4756098,22.6190476 32.9268293,22.0833333 32.9268293,21.4285714 C32.9275287,17.6329882 29.8829161,14.5017951 26,14.3047619 C25.3292683,14.2666667 24.8146341,13.7095238 24.847561,13.0535714 C24.8856269,12.3981298 25.4561724,11.8942126 26.1280488,11.922619 C31.3076642,12.1874036 35.3677597,16.3653523 35.3658537,21.4285714 C35.3658537,22.0833333 34.8170732,22.6190476 34.1463415,22.6190476 L34.1463415,22.6190476 Z"/>
    <path fill="#FFF" d="M25.6097561,0 C20.1219512,0 11.5707317,0.492857143 6.3597561,5.13809524 C2.67682927,8.71904762 1.2195122,13.7380952 1.2195122,20.2380952 C1.2195122,20.777381 1.21463415,21.377381 1.22439024,22.0238095 C1.21463415,22.6702381 1.2195122,23.2702381 1.2195122,23.8095238 C1.2195122,30.3059524 2.67682927,35.3285714 6.3597561,38.9095238 C8.34634146,40.6761905 10.8182927,41.8380952 13.4146341,42.6059524 L13.4146341,48.0654762 C13.4146341,49.9678571 14.695122,50 14.9292683,50 L14.9390244,50 C15.5390244,49.9952381 16.0634146,49.7119048 16.5829268,49.2559524 C16.7829268,49.0892857 19.0463415,46.6190476 21.5134146,43.922619 C22.9804878,44.0154762 24.3756098,44.047619 25.6097561,44.047619 C31.097561,44.047619 39.6487805,43.5547619 44.854878,38.9095238 C48.5378049,35.3285714 50,30.3059524 50,23.8095238 C50,23.2702381 50,22.6702381 49.995122,22.0238095 C50,21.372619 50,20.777381 50,20.2380952 C50,13.7380952 48.5426829,8.71428571 44.854878,5.13809524 C39.647561,0.492857143 31.097561,0 25.6097561,0 Z M46.3414634,23.3952381 L46.3414634,23.8095238 C46.3414634,29.65 45.0646341,33.6261905 42.3353659,36.3238095 C37.6,40.4761905 28.5817073,40.4761905 25.6097561,40.4761905 C24.704878,40.4761905 23.2378049,40.4761905 21.5036585,40.3547619 C21.0219512,40.8857143 15.8536585,46.5261905 15.8536585,46.5261905 L15.8536585,39.5464286 C13.2865854,38.9464286 10.7512195,37.9607143 8.88414634,36.3238095 C6.15487805,33.6261905 4.87804878,29.65 4.87804878,23.8095238 L4.87804878,23.3952381 C4.87804878,22.977381 4.87804878,22.5261905 4.88292683,21.9964286 C4.87804878,21.5214286 4.87804878,21.0702381 4.87804878,20.6511905 L4.87804878,20.2380952 C4.87804878,14.397619 6.15487805,10.4166667 8.88414634,7.72380952 C13.6195122,3.57142857 22.6365854,3.57142857 25.6097561,3.57142857 C28.5829268,3.57142857 37.6,3.57142857 42.3353659,7.72380952 C45.0646341,10.4166667 46.3414634,14.397619 46.3414634,20.2380952 L46.3414634,20.652381 C46.3414634,21.0702381 46.3414634,21.5214286 46.3365854,22.047619 C46.3414634,22.5261905 46.3414634,22.9761905 46.3414634,23.3952381 Z"/>
  </g>
</svg>
