<svg xmlns="http://www.w3.org/2000/svg" width="50" height="50" viewBox="0 0 50 50">
  <g fill="#FFF">
    <path d="M42.8981781,7.10182187 C38.3182525,2.52189639 32.2303771,0 25.7530213,0 C25.7526397,0 25.7511139,0 25.7507324,0 C22.5471496,0.000381469727 19.4252014,0.62065127 16.4722442,1.84402461 C13.5189057,3.06739805 10.8730316,4.83627324 8.60748291,7.10182187 C4.02793887,11.681366 1.50604248,17.7703857 1.50604248,24.2469787 C1.50604248,28.1093598 2.43797305,31.9477081 4.20379639,35.3675842 L0.128173828,47.0108032 C-0.159072852,47.8321075 0.0442504883,48.7247467 0.659942578,49.3400574 C1.09062197,49.7711182 1.65748594,50 2.24037168,50 C2.49023438,50 2.74276738,49.9580383 2.98919678,49.8718262 L14.6324158,45.7965851 C18.0522919,47.5624084 21.8906402,48.494339 25.7530213,48.494339 C32.2296143,48.494339 38.3182525,45.9720611 42.8981781,41.3925171 C47.4777222,36.812973 50,30.7239532 50,24.2473603 C50,17.7703857 47.4781036,11.681366 42.8981781,7.10182187 Z M40.8245087,39.3188477 C36.7988586,43.3448791 31.4460754,45.5615997 25.7530213,45.5615997 C22.2702026,45.5615997 18.8102723,44.7002411 15.7470703,43.0698395 C15.1916504,42.7745819 14.535141,42.7238465 13.9457703,42.9302216 L3.36761475,46.6323853 L7.07015996,36.0542297 C7.27653506,35.4640961 7.22541807,34.8075867 6.93016055,34.2525482 C5.30014043,31.1901093 4.43840029,27.7301788 4.43840029,24.2469787 C4.43840029,18.5539246 6.65550234,13.2011414 10.6811523,9.17549131 C14.7064209,5.15022275 20.0584412,2.9331207 25.7511139,2.93235781 L25.7530213,2.93235781 C31.4464569,2.93235781 36.7988586,5.14945986 40.8245087,9.17549131 C44.8505401,13.2011414 47.0676422,18.5535431 47.0676422,24.2469787 C47.0676422,29.9404145 44.8505401,35.2931977 40.8245087,39.3188477 Z"/>
    <path d="M34.7640991,26.4129639 C33.6486816,25.2975464 31.8336486,25.2975464 30.7182313,26.4129639 L29.498291,27.6329041 C26.4690399,25.9822846 24.0177154,23.5309601 22.3667145,20.501709 L23.5866547,19.2817687 C24.7024536,18.1663514 24.7024536,16.3513184 23.5866547,15.2359009 L20.2991485,11.9483947 C19.1837311,10.8329773 17.3686981,10.8329773 16.2532807,11.9483947 L13.6234283,14.5782471 C12.1170044,16.084671 12.0418549,18.6744689 13.4117127,21.8708038 C14.6011353,24.6459961 16.7778016,27.696228 19.5407867,30.4592133 C22.303772,33.2221984 25.3540039,35.3988647 28.1291962,36.5882873 C29.6478271,37.2390747 31.029129,37.5637055 32.2227479,37.5637055 C33.5414887,37.5637055 34.6309662,37.1673584 35.4217529,36.3765717 L38.0516053,33.7463379 L38.0516053,33.7467193 C38.5921479,33.2061768 38.8896942,32.4878692 38.8896942,31.7237854 C38.8896942,30.9593201 38.5921479,30.2410126 38.0516053,29.7008515 L34.7640991,26.4129639 Z M33.3480835,34.3029022 C32.9181671,34.7328186 31.5959931,34.8834991 29.284668,33.8932037 C26.8440246,32.8472138 24.1199493,30.891037 21.6144562,28.3855438 C19.108963,25.8800507 17.1531678,23.1563568 16.1071777,20.7157135 C15.1165009,18.4043885 15.2671814,17.0818329 15.6970978,16.6519165 L18.2765961,14.0724182 L21.4626313,17.2588349 L19.9356079,18.7862396 C19.2451477,19.4766998 19.0784454,20.5238342 19.5213318,21.3920594 C21.5290069,25.328827 24.671173,28.4709931 28.6079406,30.4786682 C29.4765473,30.9215546 30.5236816,30.7552338 31.2141418,30.0643921 L32.7411651,28.5373687 L35.9275818,31.7237854 L33.3480835,34.3029022 Z"/>
  </g>
</svg>
