<svg xmlns="http://www.w3.org/2000/svg" width="512pt" height="512pt" viewBox="0 0 512 512"><path d="M329.074 409.855C341.672 422.457 332.75 444 314.93 444H80c-44.184 0-80-35.816-80-80V148a79.83 79.83 0 012.043-17.988c3.523-15.274 22.539-20.649 33.625-9.563a20.009 20.009 0 015.34 18.63A39.763 39.763 0 0040 148v26.121h45.055c5.3 0 10.39 2.106 14.14 5.86C111.793 192.577 102.871 214 85.055 214H40v150c0 22.09 17.91 40 40 40h234.93a20.004 20.004 0 0114.144 5.855zM472 264.121v-50H242.406l189.871 189.871C454.207 403.84 472 385.961 472 364c0-11.047 8.953-20 20-20s20 8.953 20 20c0 32.313-19.27 60.191-46.91 72.805l41.05 41.05c7.813 7.813 7.813 20.477 0 28.286A19.922 19.922 0 01492 512a19.929 19.929 0 01-14.14-5.86l-472-472c-7.813-7.808-7.813-20.472 0-28.28 7.808-7.813 20.472-7.813 28.28 0L96.286 68H432c44.113 0 80 35.887 80 80v116.121c0 11.047-8.953 20-20 20s-20-8.953-20-20zm0-90V148c0-22.059-17.945-40-40-40H136.285l66.121 66.121zm0 0"/></svg>