<svg xmlns="http://www.w3.org/2000/svg" viewBox="0 0 480.006 480.006">
  <path d="M472 380.002h-8.888c22.098-21.505 22.579-56.853 1.074-78.951a55.867 55.867 0 00-11.474-9.049 56 56 0 0027.288-48c-.04-30.911-25.089-55.96-56-56h-72v-56a8 8 0 00-9.216-7.904L248 138.674v-7.472c18.611-3.827 31.976-20.199 32-39.2 0-34.912-32.936-68.256-34.344-69.656a8 8 0 00-11.312 0C232.936 23.746 200 57.09 200 92.002c.024 19.001 13.389 35.373 32 39.2v9.944l-97.216 14.96a8 8 0 00-6.784 7.896v89.128a87.534 87.534 0 00-20-16.048 8 8 0 00-8 0 88.391 88.391 0 00-43.2 64.688 86.835 86.835 0 00-16.8-1.768 87.314 87.314 0 00-10.56.688 8 8 0 00-6.4 4.8c-16.302 38.24-3.597 82.671 30.456 106.512H0v16h19.056l13.784 27.576a8.001 8.001 0 007.16 4.424h304a8 8 0 008-8v-24h51.056l13.784 27.576a8.001 8.001 0 007.16 4.424h32a8 8 0 008-8v-24h8a8 8 0 008-8v-32a8 8 0 00-8-8zm-8-40c-.026 22.08-17.92 39.974-40 40H280c-22.091 0-40-17.909-40-40s17.909-40 40-40h104c13.255 0 24 10.745 24 24s-10.745 24-24 24h-80a8 8 0 010-16h56v-16h-56c-13.255 0-24 10.745-24 24s10.745 24 24 24h80c22.08-.026 39.974-17.92 40-40a39.583 39.583 0 00-8.208-24H424c22.08.026 39.974 17.92 40 40zm-64-136c13.255 0 24 10.745 24 24s-10.745 24-24 24h-80a8 8 0 010-16h56v-16h-56c-13.255 0-24 10.745-24 24s10.745 24 24 24h80c22.08-.026 39.974-17.92 40-40a39.622 39.622 0 00-7.392-23.008c21.544 4.888 35.047 26.315 30.159 47.859-4.113 18.131-20.176 31.037-38.767 31.149H312c-22.091 0-40-17.909-40-40s17.909-40 40-40h88zm-184-112c0-20.456 15.4-41.728 24-52 8.608 10.264 24 31.496 24 52a24 24 0 01-16 22.528v-14.528h-16v14.528a24 24 0 01-16-22.528zM104 253.426a72.25 72.25 0 0131.56 52.848 88.198 88.198 0 00-31.488 21.432 88.54 88.54 0 00-31.64-21.304A72.232 72.232 0 01104 253.426zm40.13 66.646a72.027 72.027 0 0123.87-4.07c1.256 0 2.568.048 3.936.136 13.18 37.517-6.549 78.614-44.066 91.794a72.03 72.03 0 01-23.87 4.07c-1.256 0-2.568-.048-3.936-.136-13.18-37.517 6.549-78.614 44.066-91.794zM32 340.002a71.57 71.57 0 014.064-23.864 61.478 61.478 0 013.936-.136 71.256 71.256 0 0154.016 24.536 86.633 86.633 0 00-11.44 68.216C52.487 399.376 31.994 371.519 32 340.002zm131.056 104H44.944l-8-16h134.112l-8 16zm76.944 0h-59.056l8-16H208v-16h-53.56c34.091-23.808 46.828-68.253 30.52-106.504a8 8 0 00-6.4-4.8 84.309 84.309 0 00-27.336.96 87.62 87.62 0 00-7.736-25.656H144V170.866l192-29.536v46.672h-24c-30.888-.041-55.961 24.966-56.002 55.854a55.927 55.927 0 0017.362 40.578c-30.667 3.618-52.593 31.412-48.975 62.079a55.906 55.906 0 0016.503 33.489H232a8 8 0 00-8 8v32a8 8 0 008 8h8v16zm35.056 0H256v-16h27.056l-8 16zm60.944 0h-43.056l8-16H336v16zm112 0h-19.056l-8-16H448v16zm16-32H240v-16h224v16z"/>
  <path d="M160 188.002h16v64h-16zm0 80h16v16h-16z"/>
</svg>
