<svg xmlns="http://www.w3.org/2000/svg" viewBox="0 0 512 512">
  <path d="M365.959 201.593h-18.323a8.591 8.591 0 000 17.182h18.323a8.591 8.591 0 000-17.182zm2.258 70.971a17.645 17.645 0 00-13.994-6.828H157.776a17.646 17.646 0 00-13.994 6.828 17.641 17.641 0 00-3.23 15.232l4.582 18.328a17.73 17.73 0 0017.224 13.447h187.284a17.73 17.73 0 0017.224-13.448l4.582-18.327a17.644 17.644 0 00-3.231-15.232zm-13.438 11.066l-4.582 18.326a.57.57 0 01-.555.434H162.358a.573.573 0 01-.556-.433l-4.582-18.327c-.021-.081-.068-.271.104-.491s.368-.22.451-.22h196.448c.084 0 .279 0 .451.22s.126.409.105.491z"/>
  <path d="M485.083 218.774c14.842 0 26.917-12.075 26.917-26.917s-12.075-26.917-26.917-26.917h-9.163c-13.383 0-24.513 9.82-26.573 22.631l-22.917-63.023c-5.165-14.207-18.792-23.751-33.908-23.751h-65.337l-4.836-24.177c-2.506-12.539-13.608-21.639-26.394-21.639h-79.912c-12.786 0-23.886 9.1-26.394 21.639l-4.835 24.177h-65.337c-15.116 0-28.743 9.545-33.908 23.75L62.653 187.57c-2.059-12.81-13.189-22.63-26.572-22.63h-9.163C12.075 164.94 0 177.015 0 191.857c0 14.842 12.075 26.917 26.917 26.917h9.163a26.75 26.75 0 0011.801-2.731l-19.64 24.551a45.404 45.404 0 00-9.915 28.263v170.409c0 9.79 7.964 17.754 17.754 17.754h27.49c9.79 0 17.754-7.964 17.754-17.754V402.04h349.351v37.226c0 9.79 7.964 17.754 17.754 17.754h27.49c9.79 0 17.754-7.964 17.754-17.754V268.857a45.402 45.402 0 00-9.915-28.263l-19.64-24.551a26.75 26.75 0 0011.801 2.731h9.164zM36.081 201.593h-9.163c-5.369 0-9.736-4.367-9.736-9.736 0-5.369 4.367-9.736 9.736-9.736h9.163c5.369 0 9.736 4.367 9.736 9.736 0 5.368-4.368 9.736-9.736 9.736zM206.497 79.988c.907-4.535 4.922-7.827 9.546-7.827h79.912c4.625 0 8.64 3.292 9.546 7.827l4.162 20.809H202.335l4.162-20.809zM64.143 439.266a.574.574 0 01-.573.573H36.08a.574.574 0 01-.573-.573v-42.588a35.862 35.862 0 0018.899 5.362h9.736v37.226zm293.226-54.407H154.631V365.96c0-.316.257-.573.573-.573h201.593c.316 0 .573.257.573.573v18.899zm119.123 54.407a.574.574 0 01-.573.573h-27.49a.574.574 0 01-.573-.573V402.04h9.736a35.862 35.862 0 0018.899-5.362v42.588zm-6.148-187.939a28.174 28.174 0 016.149 17.531v97.102c0 10.421-8.478 18.899-18.899 18.899H374.55V365.96c0-9.79-7.964-17.754-17.754-17.754H155.204c-9.79 0-17.754 7.964-17.754 17.754v18.899H54.407c-10.421 0-18.899-8.478-18.899-18.899v-97.102a28.163 28.163 0 016.15-17.531l26.041-32.553H310.98a8.591 8.591 0 000-17.182H75.836l25.882-71.175c2.705-7.441 9.843-12.44 17.761-12.44h273.044c7.918 0 15.055 5 17.761 12.44l25.882 71.175h-33.551a8.591 8.591 0 000 17.182h41.688l26.041 32.553zm-4.161-59.47c0-5.369 4.367-9.736 9.736-9.736h9.163c5.369 0 9.736 4.367 9.736 9.736 0 5.369-4.367 9.736-9.736 9.736h-9.163c-5.368 0-9.736-4.368-9.736-9.736z"/>
  <path d="M91.06 329.879c-9.79 0-17.754 7.964-17.754 17.754s7.964 17.754 17.754 17.754 17.754-7.964 17.754-17.754-7.964-17.754-17.754-17.754zm329.88 0c-9.79 0-17.754 7.964-17.754 17.754s7.964 17.754 17.754 17.754c9.79 0 17.754-7.964 17.754-17.754s-7.965-17.754-17.754-17.754zM86.479 256.573c-17.369 0-31.499 14.13-31.499 31.499s14.13 31.499 31.499 31.499 31.499-14.13 31.499-31.499-14.13-31.499-31.499-31.499zm0 45.816c-7.895 0-14.318-6.422-14.318-14.318s6.422-14.318 14.318-14.318 14.318 6.422 14.318 14.318-6.423 14.318-14.318 14.318zm339.042-45.816c-17.369 0-31.499 14.13-31.499 31.499s14.13 31.499 31.499 31.499 31.499-14.13 31.499-31.499-14.13-31.499-31.499-31.499zm0 45.816c-7.895 0-14.318-6.422-14.318-14.318s6.422-14.318 14.318-14.318c7.895 0 14.318 6.422 14.318 14.318s-6.422 14.318-14.318 14.318z"/>
</svg>
