<svg xmlns="http://www.w3.org/2000/svg" viewBox="0 0 512 512"><path fill="#fff" d="M347.705 372.8l-55.364-55.36c-15.193-15.192-39.912-15.192-55.105 0l-18.011 18.011c-2.224 2.224-5.182 3.449-8.327 3.449s-6.104-1.225-8.327-3.45l-66.148-66.148a11.7 11.7 0 01-3.45-8.328c0-2.909 1.06-5.65 2.978-7.806.143-.127.289-.248.426-.385.263-.263.504-.538.732-.821l17.326-17.326c15.192-15.193 15.192-39.913 0-55.105L99.12 124.217a38.997 38.997 0 00-29.887-11.342 38.988 38.988 0 00-28.314 14.834L29.04 142.841c-42.496 54.133-37.845 131.651 10.818 180.315l108.906 108.906c26.396 26.396 61.271 39.84 96.309 39.84 23.802 0 47.681-6.215 69.014-18.788 6.463 7.986 6.103 17.501 3.375 24.084-2.964 7.156-10.34 14.802-22.152 14.802h-66.776c-5.522 0-10 4.477-10 10s4.478 10 10 10h66.776c18.125 0 33.694-10.402 40.63-27.148 6.114-14.76 3.997-30.776-5.367-43.144l13.639-10.707a38.994 38.994 0 0014.835-28.317 38.986 38.986 0 00-11.342-29.884zM56.648 140.059c3.396-4.326 8.291-6.89 13.781-7.22 5.496-.331 10.658 1.631 14.547 5.521l55.315 55.315c3.582 3.582 5.555 8.344 5.555 13.41s-1.973 9.829-5.555 13.41l-11.031 11.031-80.904-80.904 8.292-10.563zm106.257 277.862L53.998 309.014c-38.06-38.059-44.554-96.805-17.438-141.903l79.725 79.725a31.635 31.635 0 00-3.312 14.14c0 8.488 3.306 16.468 9.308 22.47l66.148 66.148c6.002 6.002 13.981 9.308 22.47 9.308 4.99 0 9.8-1.151 14.141-3.312l79.77 79.77c-45.101 27.114-103.845 20.619-141.905-17.439zm176.175-16.432c-.329 5.491-2.894 10.386-7.221 13.783l-10.562 8.292-80.95-80.95 11.03-11.031c7.393-7.396 19.426-7.395 26.82 0l55.361 55.361c3.89 3.889 5.851 9.054 5.522 14.545z"/><path fill="#fff" d="M146.863 353.476l-60.344-60.345c-3.906-3.905-10.236-3.905-14.143 0-3.905 3.905-3.905 10.237 0 14.143l60.345 60.345a9.968 9.968 0 007.071 2.929 9.968 9.968 0 007.071-2.929c3.905-3.905 3.905-10.237 0-14.143zm31.38 31.382a10.077 10.077 0 00-7.07-2.93c-2.63 0-5.21 1.07-7.069 2.93a10.077 10.077 0 00-2.931 7.07c0 2.63 1.07 5.21 2.931 7.07a10.056 10.056 0 007.069 2.93c2.63 0 5.21-1.07 7.07-2.93s2.93-4.44 2.93-7.07-1.069-5.21-2.93-7.07zM437.982 0H245.983c-40.804 0-74 33.196-74 74v79c0 40.804 33.196 74 74 74h80.558v28.095a10.002 10.002 0 0017.071 7.072L378.778 227h59.204c40.804 0 74-33.196 74-74V74c0-40.804-33.197-74-74-74zm54 152.999c0 29.776-24.225 54-54 54h-63.347a10.003 10.003 0 00-7.071 2.929l-21.024 21.024v-13.953c0-5.523-4.478-10-10-10h-90.557c-29.775 0-54-24.224-54-54V74c0-29.776 24.225-54 54-54h191.999c29.775 0 54 24.224 54 54v78.999z"/><path fill="#fff" d="M279.52 139.499h-21.079c12.04-11.595 24.249-26.847 24.249-41.024 0-18.528-12.448-30.976-30.976-30.976-17.08 0-30.977 13.896-30.977 30.976 0 5.523 4.478 10 10 10s10-4.477 10-10c0-6.052 4.924-10.976 10.977-10.976 9.838 0 10.976 6.264 10.976 10.976 0 10.946-22.52 32.052-37.737 42.868a10 10 0 005.785 18.156h48.782c5.522 0 10-4.477 10-10s-4.478-10-10-10z"/><path fill="#fff" d="M329.463 96.144c-5.522 0-10 4.477-10 10v6.983h-9.778l17.453-30.684c2.73-4.801 1.053-10.906-3.748-13.637-4.798-2.729-10.905-1.054-13.637 3.748L283.8 118.182a10 10 0 008.693 14.944h26.971v16.373c0 5.523 4.478 10 10 10s10-4.477 10-10v-43.355c-.001-5.523-4.479-10-10.001-10zm64.636-27.977a10 10 0 00-12.924 5.742l-27.7 72c-1.983 5.155.588 10.941 5.742 12.924a9.968 9.968 0 003.589.67c4.017 0 7.807-2.439 9.335-6.412l27.7-72c1.983-5.155-.588-10.941-5.742-12.924zm67.34 3.626a10.003 10.003 0 00-8.212-4.293h-35.163c-5.522 0-10 4.477-10 10s4.478 10 10 10h20.772l-21.772 58.513c-1.926 5.176.709 10.934 5.885 12.859a9.969 9.969 0 003.486.631c4.058 0 7.875-2.489 9.373-6.516l26.791-72a9.998 9.998 0 00-1.16-9.194zM199.387 494.926l-24.798-24.799c-3.905-3.905-10.235-3.905-14.143 0-3.905 3.905-3.905 10.237 0 14.142l24.799 24.799a9.968 9.968 0 007.071 2.929 9.972 9.972 0 007.071-2.929c3.904-3.905 3.904-10.237 0-14.142zm-50.612 0l-24.798-24.799c-3.905-3.905-10.235-3.905-14.143 0-3.905 3.905-3.905 10.237 0 14.142l24.799 24.799a9.968 9.968 0 007.071 2.929 9.972 9.972 0 007.071-2.929c3.905-3.905 3.905-10.237 0-14.142zm-50.613 0l-24.798-24.799c-3.905-3.905-10.235-3.905-14.143 0-3.905 3.905-3.905 10.237 0 14.142l24.799 24.799c1.953 1.953 4.512 2.929 7.071 2.929s5.118-.977 7.071-2.929c3.905-3.905 3.905-10.237 0-14.142z"/></svg>