<svg xmlns="http://www.w3.org/2000/svg" width="54" height="54" viewBox="0 0 54 54"><g fill="none" fill-rule="evenodd" transform="translate(2 2)"><path fill="#FFF" fill-rule="nonzero" d="M36.78 11.003a3.326 3.326 0 00-1.078.266h-.004c-.33.137-1.894.82-4.27 1.857l-8.52 3.727-12.123 5.308.072-.028s-.415.14-.847.45a2.384 2.384 0 00-.677.68c-.212.322-.382.82-.32 1.329.105.866.646 1.387 1.034 1.672.236.175.493.319.765.427h.01l5.634 1.972c.254.843 1.718 5.845 2.07 6.998.208.69.41 1.12.662 1.448.122.168.267.31.438.421.09.054.184.097.283.127l-.058-.014c.019.004.031.018.046.023.045.014.076.018.134.028.892.281 1.61-.295 1.61-.295l.04-.033 3.329-3.147 5.575 4.445.127.057c1.162.53 2.339.234 2.96-.287.38-.321.68-.731.871-1.194l.042-.108 4.308-22.939c.122-.567.155-1.096.019-1.611a2.161 2.161 0 00-.901-1.257 2.096 2.096 0 00-1.232-.322zm-.118 2.46c-.004.074.009.064-.022.21v.014l-4.27 22.7c-.018.034-.049.103-.135.173-.09.075-.162.123-.536-.033l-6.821-5.433-4.122 3.902.867-5.742s10.684-10.35 11.144-10.792c.46-.447.306-.54.306-.54.033-.544-.694-.158-.694-.158l-14.05 9.044-.006-.023-6.735-2.357v-.004l-.018-.005a.335.335 0 00.036-.014l.036-.019.035-.014 12.127-5.307c3.063-1.34 6.146-2.689 8.517-3.729a964.832 964.832 0 014.224-1.836c.095-.038.05-.038.117-.038z"/><circle cx="25" cy="25" r="25" stroke="#FFF" stroke-width="3"/></g></svg>