<svg xmlns="http://www.w3.org/2000/svg" width="49" height="50" viewBox="0 0 49 50"><g fill="none"><path d="M24.61 1.19c-3.22 0-13.015 0-18.427 4.828-3.223 3.134-4.744 7.663-4.744 14.22v3.572c0 6.557 1.52 11.086 4.783 14.258 1.624 1.445 3.839 2.599 6.545 3.399l.867.256v6.342c0 .745.22.745.295.745.148 0 .39-.048.844-.442.11-.107.915-.958 4.83-5.237l.396-.432.59.037c1.31.08 2.663.121 4.02.121 3.22 0 13.015 0 18.428-4.827 3.223-3.135 4.743-7.668 4.743-14.22v-3.572c0-6.557-1.519-11.087-4.782-14.258C37.624 1.19 27.83 1.19 24.61 1.19z"/><path fill="#FFF" d="M36.134 29.59c-1.354-1.116-1.978-1.45-3.85-2.548-.78-.456-1.967-.852-2.591-.852-.425 0-.934.317-1.248.623-.801.782-1.063 1.758-2.463 1.758-1.372 0-3.769-1.363-5.488-3.125-1.805-1.678-3.201-4.017-3.201-5.357 0-1.366.981-1.641 1.78-2.422.316-.307.659-.805.659-1.22 0-.608-.405-1.747-.872-2.51-1.125-1.827-1.467-2.437-2.61-3.757-.387-.453-.824-.656-1.287-.656-.78 0-1.8.376-2.496.878-1.039.759-2.13 1.79-2.42 3.079a3.177 3.177 0 00-.071.526c-.058 1.34.485 2.697 1.067 3.85 1.367 2.71 3.183 5.338 5.155 7.682a25.398 25.398 0 002.024 2.125c.686.7 1.413 1.36 2.177 1.976 2.401 1.927 5.092 3.698 7.87 5.033 1.166.563 2.543 1.078 3.902 1.041a2.9 2.9 0 00.58-.07c1.32-.283 2.377-1.348 3.154-2.362.515-.678.9-1.674.9-2.437 0-.451-.21-.878-.67-1.256zm.67-5.78c-.67 0-1.219-.536-1.219-1.191v-1.19c0-5.905-4.926-10.715-10.975-10.715-.671 0-1.22-.535-1.22-1.19 0-.655.549-1.19 1.22-1.19 7.397 0 13.414 5.873 13.414 13.095v1.19c0 .655-.548 1.19-1.22 1.19zm-7.487-2.381a1.215 1.215 0 01-1.183-.889 3.596 3.596 0 00-2.61-2.553 1.189 1.189 0 01-.876-1.45 1.224 1.224 0 011.486-.856c2.135.543 3.803 2.17 4.359 4.255a1.17 1.17 0 01-.214 1.027c-.23.292-.585.464-.962.466z"/><path fill="#FFF" d="M33.146 22.619c-.67 0-1.22-.536-1.22-1.19.002-3.796-3.043-6.927-6.926-7.124-.67-.038-1.185-.595-1.152-1.251.038-.656.608-1.16 1.28-1.131 5.18.264 9.24 4.442 9.238 9.506 0 .654-.549 1.19-1.22 1.19z"/><path fill="#FFF" d="M24.61 0C19.122 0 10.57.493 5.36 5.138 1.677 8.72.22 13.738.22 20.238c0 .54-.005 1.14.004 1.786C.214 22.67.22 23.27.22 23.81c0 6.496 1.457 11.519 5.14 15.1 1.986 1.766 4.458 2.928 7.055 3.696v5.46c0 1.902 1.28 1.934 1.514 1.934h.01c.6-.005 1.124-.288 1.644-.744.2-.167 2.463-2.637 4.93-5.333 1.467.092 2.863.125 4.097.125 5.488 0 14.039-.493 19.245-5.138C47.538 35.329 49 30.306 49 23.81c0-.54 0-1.14-.005-1.786.005-.651.005-1.247.005-1.786 0-6.5-1.457-11.524-5.145-15.1C38.648.493 30.098 0 24.61 0zm20.73 23.395v.415c0 5.84-1.276 9.816-4.006 12.514-4.735 4.152-13.753 4.152-16.725 4.152-.905 0-2.372 0-4.106-.121-.482.53-5.65 6.171-5.65 6.171v-6.98c-2.567-.6-5.103-1.585-6.97-3.222-2.73-2.698-4.006-6.674-4.006-12.514v-.415c0-.418 0-.869.005-1.399-.005-.475-.005-.926-.005-1.345v-.413c0-5.84 1.277-9.821 4.006-12.514C12.62 3.57 21.637 3.57 24.61 3.57c2.973 0 11.99 0 16.725 4.153 2.73 2.693 4.006 6.674 4.006 12.514v.414c0 .418 0 .87-.004 1.396.004.478.004.928.004 1.347z"/></g></svg>