<svg xmlns="http://www.w3.org/2000/svg" width="50" height="50" viewBox="0 0 50 50"><g fill="#FFF"><path d="M42.898 7.102A24.086 24.086 0 0025.753 0h-.002c-3.204 0-6.326.62-9.279 1.844a24.126 24.126 0 00-7.865 5.258 24.088 24.088 0 00-7.101 17.145c0 3.862.932 7.7 2.698 11.12L.128 47.012a2.228 2.228 0 00.532 2.33 2.228 2.228 0 002.33.53l11.642-4.074a24.32 24.32 0 0011.121 2.697 24.09 24.09 0 0017.145-7.101A24.088 24.088 0 0050 24.247a24.087 24.087 0 00-7.102-17.145zm-2.073 32.217a21.174 21.174 0 01-15.072 6.243c-3.483 0-6.943-.862-10.006-2.492a2.258 2.258 0 00-1.801-.14L3.368 46.632 7.07 36.054a2.26 2.26 0 00-.14-1.801 21.368 21.368 0 01-2.492-10.006 21.175 21.175 0 016.243-15.072 21.177 21.177 0 0115.07-6.243h.002a21.173 21.173 0 0115.072 6.243 21.173 21.173 0 016.243 15.072 21.174 21.174 0 01-6.243 15.072z"/><path d="M34.764 26.413a2.864 2.864 0 00-4.046 0l-1.22 1.22a17.758 17.758 0 01-7.131-7.131l1.22-1.22a2.863 2.863 0 000-4.046l-3.288-3.288a2.864 2.864 0 00-4.046 0l-2.63 2.63c-1.506 1.507-1.581 4.096-.211 7.293 1.19 2.775 3.366 5.825 6.129 8.588 2.763 2.763 5.813 4.94 8.588 6.13 1.519.65 2.9.975 4.094.975 1.318 0 2.408-.397 3.199-1.187l2.63-2.63c.54-.54.838-1.26.838-2.023a2.84 2.84 0 00-.838-2.023l-3.288-3.288zm-1.416 7.89c-.43.43-1.752.58-4.063-.41-2.441-1.046-5.165-3.002-7.67-5.507-2.506-2.506-4.462-5.23-5.508-7.67-.99-2.312-.84-3.634-.41-4.064l2.58-2.58 3.186 3.187-1.527 1.527a2.238 2.238 0 00-.415 2.606 20.688 20.688 0 009.087 9.087 2.238 2.238 0 002.606-.415l1.527-1.527 3.187 3.187-2.58 2.579z"/></g></svg>